<svg width="150" height="30" viewBox="0 0 150 30" fill="none" xmlns="http://www.w3.org/2000/svg">
<g clip-path="url(#clip0_6753_2492)">
<path d="M20.898 20.2194L1.92493 1.13187C1.76698 0.973532 1.56592 0.865813 1.34714 0.822321C1.12836 0.778829 0.901671 0.801515 0.695701 0.887513C0.489732 0.973511 0.313721 1.11896 0.189898 1.3055C0.0660753 1.49204 -5.94136e-06 1.7113 4.00658e-10 1.93559C4.00658e-10 7.23975 0.973297 15.1666 3.86901 19.4289C7.98614 25.4892 15.5776 26.1828 20.898 20.2194Z" fill="url(#paint0_radial_6753_2492)"/>
<path d="M3.80587e-07 25.7827C-0.0002705 26.4221 0.14406 27.0532 0.42207 27.6281C0.70008 28.2031 1.10449 28.707 1.60469 29.1016C2.1049 29.4962 2.68779 29.7712 3.30928 29.9059C3.93076 30.0405 4.57456 30.0312 5.19194 29.8787C10.7133 28.5089 16.3803 25.7108 20.9744 20.2981L20.8981 20.2213C15.5776 26.1847 7.98614 25.4911 3.86901 19.4308C0.973297 15.1685 3.80587e-07 7.24166 3.80587e-07 1.9375V25.7827Z" fill="url(#paint1_linear_6753_2492)"/>
<path d="M20.8572 20.1645C15.5367 26.1279 8.13782 25.3965 3.99646 19.3529C1.22103 15.3027 0.1875 7.34326 0.1875 2.03906" stroke="url(#paint2_linear_6753_2492)" stroke-width="0.277665" stroke-miterlimit="10"/>
<path d="M10.5156 9.78311L29.4888 28.8706C29.6468 29.029 29.8478 29.1367 30.0666 29.1802C30.2854 29.2237 30.512 29.201 30.718 29.115C30.924 29.029 31.1 28.8835 31.2238 28.697C31.3476 28.5105 31.4137 28.2912 31.4137 28.0669C31.4137 22.7627 30.4404 14.8359 27.5447 10.5736C23.4275 4.51336 15.8361 3.81968 10.5156 9.78311Z" fill="url(#paint3_radial_6753_2492)"/>
<path d="M31.4197 4.22154C31.42 3.58218 31.2756 2.95113 30.9976 2.37615C30.7196 1.80116 30.3152 1.2973 29.815 0.90269C29.3148 0.508079 28.7319 0.233054 28.1104 0.0984268C27.4889 -0.0362005 26.8451 -0.026904 26.2278 0.125613C20.7064 1.49544 15.0394 4.2935 10.4453 9.70618L10.5216 9.78297C15.8421 3.81954 23.4336 4.51322 27.5507 10.5735C30.4464 14.8358 31.4197 22.7626 31.4197 28.0668L31.4197 4.22154Z" fill="url(#paint4_linear_6753_2492)"/>
<path d="M11.3125 8.95843C11.3125 8.95843 16.6722 3.12662 23.7307 6.93568L17.2748 13.4284L11.3125 8.95843Z" fill="url(#paint5_linear_6753_2492)"/>
<path d="M10.5703 9.84777C15.8908 3.88435 23.3139 4.5991 27.431 10.6594C30.3267 14.9217 31.24 22.669 31.24 27.9732" stroke="url(#paint6_linear_6753_2492)" stroke-width="0.277665" stroke-miterlimit="10"/>
<path d="M15.7098 22.4889C19.8212 22.4889 23.1541 19.1371 23.1541 15.0023C23.1541 10.8675 19.8212 7.51562 15.7098 7.51562C11.5985 7.51562 8.26562 10.8675 8.26562 15.0023C8.26562 19.1371 11.5985 22.4889 15.7098 22.4889Z" fill="white"/>
<path d="M68.0699 7.52344V22.4972H64.1592V9.00089L65.0326 9.10073L59.2756 22.4971H55.1068L49.33 9.14065L50.2233 9.04082V22.4971H46.3125V7.52344H52.6651L58.0051 20.3808H56.417L61.7174 7.52344H68.0699Z" fill="white"/>
<path d="M74.7577 15.8089C74.7577 16.4877 74.8868 17.0767 75.1448 17.5758C75.3987 18.0709 75.8017 18.4727 76.2962 18.7237C76.8055 18.9902 77.4309 19.1233 78.1722 19.1231C78.9266 19.1231 79.5552 18.99 80.0581 18.7237C80.547 18.4717 80.9433 18.0697 81.1896 17.5758C81.4409 17.0766 81.5667 16.4877 81.5669 15.8089V7.52344H85.696V16.0085C85.696 17.3796 85.3817 18.5741 84.753 19.5922C84.1164 20.6176 83.2046 21.4412 82.1227 21.968C80.9976 22.5336 79.6808 22.8165 78.1722 22.8165C76.6765 22.8165 75.3629 22.5337 74.2316 21.968C73.1456 21.4435 72.23 20.6196 71.5913 19.5922C70.9626 18.574 70.6483 17.3794 70.6484 16.0085V7.52344H74.7577V15.8089Z" fill="white"/>
<path d="M91.1201 14.072H96.5396C97.2012 14.072 97.7174 13.9189 98.088 13.6128C98.4584 13.3068 98.6436 12.8809 98.6439 12.335C98.6439 11.776 98.4586 11.3467 98.088 11.0473C97.7173 10.7478 97.2012 10.5981 96.5396 10.5981H90.5444L92.3905 8.62155V22.4971H88.2812V7.52344H97.1153C98.2533 7.52344 99.2459 7.72643 100.093 8.13242C100.894 8.49958 101.58 9.07938 102.078 9.80947C102.555 10.5216 102.793 11.3635 102.793 12.335C102.793 13.2802 102.555 14.1121 102.078 14.8306C101.584 15.5642 100.897 16.1449 100.093 16.5077C99.2459 16.9069 98.2533 17.1066 97.1153 17.1066H91.1201L91.1201 14.072ZM93.0875 17.1066H92.3905L95.7186 16.6827C96.595 16.5711 97.4851 16.6925 98.3003 17.0347C99.1155 17.377 99.8273 17.9281 100.365 18.6333L103.309 22.4971H98.5446L95.4147 18.2801C95.1444 17.9159 94.7932 17.6201 94.3892 17.4164C93.9852 17.2127 93.5395 17.1066 93.0875 17.1066Z" fill="white"/>
<path d="M118.33 7.52344V11.0173H107.292L109.258 9.04082V22.4971H105.148V7.52344H118.33ZM111.512 13.6527H117.953V17.1465H111.494C110.891 17.1465 110.312 17.3877 109.885 17.8169C109.458 18.2461 109.218 18.8282 109.218 19.4352V21.2089L108.865 16.525C108.837 16.1584 108.885 15.7899 109.005 15.4428C109.126 15.0957 109.316 14.7773 109.565 14.5076C109.814 14.238 110.115 14.0229 110.45 13.8758C110.785 13.7286 111.147 13.6527 111.512 13.6527Z" fill="white"/>
<path d="M137.705 7.89457L144.474 22.8683H140.087L134.409 9.65148H135.6L129.903 22.8683H125.516L132.285 7.89453L137.705 7.89457ZM129.784 19.9933V16.6592H135.485C136.302 16.6592 137.096 16.9265 137.748 17.4208C138.4 17.9151 138.874 18.6094 139.099 19.3988L140.087 22.8683L139.611 21.7255C139.397 21.2123 139.037 20.7741 138.577 20.4659C138.116 20.1577 137.575 19.9933 137.022 19.9933H129.784Z" fill="white"/>
<path d="M145.891 7.89453H150V22.8683H145.891V7.89453Z" fill="white"/>
<path d="M120.793 24.9657C122.15 24.9657 123.25 23.8593 123.25 22.4946C123.25 21.1298 122.15 20.0234 120.793 20.0234C119.436 20.0234 118.336 21.1298 118.336 22.4946C118.336 23.8593 119.436 24.9657 120.793 24.9657Z" fill="white"/>
</g>
<defs>
<radialGradient id="paint0_radial_6753_2492" cx="0" cy="0" r="1" gradientUnits="userSpaceOnUse" gradientTransform="translate(14.7493 16.8598) rotate(180) scale(20.8866 21.0057)">
<stop offset="0.2794" stop-color="#DAABFF"/>
<stop offset="0.8659" stop-color="#735DFF"/>
</radialGradient>
<linearGradient id="paint1_linear_6753_2492" x1="-5.9912" y1="11.7858" x2="15.0223" y2="23.3017" gradientUnits="userSpaceOnUse">
<stop offset="0.4244" stop-color="#C6B2FF"/>
<stop offset="0.8444" stop-color="#735DFF"/>
</linearGradient>
<linearGradient id="paint2_linear_6753_2492" x1="6.7489" y1="0.223918" x2="13.3161" y2="24.5941" gradientUnits="userSpaceOnUse">
<stop offset="0.0039" stop-color="white" stop-opacity="0"/>
<stop offset="0.103" stop-color="white" stop-opacity="0.0753"/>
<stop offset="0.3046" stop-color="white" stop-opacity="0.2709"/>
<stop offset="0.5911" stop-color="white" stop-opacity="0.5862"/>
<stop offset="0.9369" stop-color="white"/>
</linearGradient>
<radialGradient id="paint3_radial_6753_2492" cx="0" cy="0" r="1" gradientUnits="userSpaceOnUse" gradientTransform="translate(16.6644 13.1427) scale(20.8866 21.0057)">
<stop offset="0.2202" stop-color="#FFD522"/>
<stop offset="0.2652" stop-color="#FFCA28"/>
<stop offset="0.344" stop-color="#FFAD37"/>
<stop offset="0.4467" stop-color="#FF7E51"/>
<stop offset="0.5444" stop-color="#FF4B6C"/>
<stop offset="1" stop-color="#C81395"/>
</radialGradient>
<linearGradient id="paint4_linear_6753_2492" x1="15.0462" y1="16.2493" x2="33.8542" y2="13.3321" gradientUnits="userSpaceOnUse">
<stop offset="0.3465" stop-color="#F02173"/>
<stop offset="0.6144" stop-color="#E81DB8"/>
<stop offset="0.7594" stop-color="#C516E1"/>
<stop offset="1" stop-color="#735DFF"/>
</linearGradient>
<linearGradient id="paint5_linear_6753_2492" x1="10.9216" y1="9.53646" x2="19.9192" y2="9.53646" gradientUnits="userSpaceOnUse">
<stop stop-color="white"/>
<stop offset="0.4463" stop-color="white" stop-opacity="0.5078"/>
<stop offset="0.7987" stop-color="white" stop-opacity="0.1433"/>
<stop offset="0.9564" stop-color="white" stop-opacity="0"/>
</linearGradient>
<linearGradient id="paint6_linear_6753_2492" x1="24.6917" y1="29.7848" x2="18.124" y2="5.41257" gradientUnits="userSpaceOnUse">
<stop offset="0.0039" stop-color="white" stop-opacity="0"/>
<stop offset="0.103" stop-color="white" stop-opacity="0.0753"/>
<stop offset="0.3046" stop-color="white" stop-opacity="0.2709"/>
<stop offset="0.5911" stop-color="white" stop-opacity="0.5862"/>
<stop offset="0.9369" stop-color="white"/>
</linearGradient>
<clipPath id="clip0_6753_2492">
<rect width="150" height="30" fill="white"/>
</clipPath>
</defs>
</svg>
