<svg width="82" height="81" viewBox="0 0 82 81" fill="none" xmlns="http://www.w3.org/2000/svg">
<mask id="mask0_232_1046" style="mask-type:alpha" maskUnits="userSpaceOnUse" x="0" y="0" width="68" height="68">
<path d="M11.1855 67.6845C-3.04165 51.9837 -2.58183 27.7117 12.5649 12.565C27.7117 -2.58179 51.9837 -3.04162 67.6845 11.1855L11.1855 67.6845Z" fill="#C4C4C4"/>
</mask>
<g mask="url(#mask0_232_1046)">
<circle cx="36" cy="36" r="40" fill="white"/>
<path fill-rule="evenodd" clip-rule="evenodd" d="M36 -4C43.3838 -4 50.2938 -1.99125 56.2313 1.4975H30.4375V-3.60625C32.2562 -3.86 34.1113 -4 36 -4ZM30.4375 39.1388H75.8662C75.9463 38.1025 76 37.0575 76 36C76 34.9425 75.9463 33.8975 75.8662 32.8613H30.4375V39.1388ZM69.4325 14.0462H30.4375V7.775H64.3412C66.2425 9.68375 67.9463 11.7875 69.4325 14.0462ZM30.4375 26.6025H74.8788C74.3562 24.4325 73.6637 22.3275 72.8025 20.3113H30.4375V26.6025ZM56.2313 70.5025C50.295 73.9912 43.3838 76 36 76C28.6162 76 21.705 73.9912 15.7687 70.5025H56.2313ZM-0.8025 51.6888H72.8037C73.6625 49.6787 74.3525 47.5812 74.875 45.4175H-2.875C-2.3525 47.58 -1.66125 49.6775 -0.8025 51.6888ZM64.3412 64.225H7.65875C5.7575 62.3163 4.05375 60.2125 2.5675 57.9538H69.4325C67.9463 60.2125 66.2425 62.3163 64.3412 64.225Z" fill="#C64252"/>
<path fill-rule="evenodd" clip-rule="evenodd" d="M-0.42125 19.4663C1.13625 16.0425 3.15875 12.8775 5.57125 10.0513L5.86 9.72005C7.2275 8.1513 8.7125 6.6888 10.3062 5.3513L10.8763 4.8838C12.49 3.58005 14.2075 2.40255 16.0125 1.3588L16.2763 1.20755C19.0438 -0.364951 22.0163 -1.61495 25.1462 -2.4962L24.7188 -1.1637H22.8862L24.3675 -0.0962012L23.7938 1.64005L25.275 0.572549L26.7563 1.6563L26.1825 -0.0962012L27.6637 -1.1637H25.8312L25.3813 -2.5637C27.0275 -3.0162 28.7137 -3.3662 30.4375 -3.6062V1.49755V7.77505V14.0463V20.3113V26.6025V32.8613V39.1388H-3.86625C-3.94625 38.1025 -4 37.0575 -4 36C-4 35.4738 -3.98 34.9513 -3.95875 34.4288L-3.9475 33.9763C-3.76625 30.3288 -3.08625 26.8125 -1.99125 23.4863L-2.03 23.6063L-0.54875 22.5225L0.91625 23.6063L0.35875 21.87L1.84 20.8025H0.00750017L-0.42125 19.4663ZM-0.54875 31.3163L0.91625 32.4001L0.36125 30.6475L1.8425 29.5801H0.0100002L-0.5475 27.8438L-1.12125 29.5801H-2.9375L-1.4725 30.6475L-2.03 32.3838L-0.54875 31.3163ZM6.09375 36.78L4.6125 35.7138L3.13125 36.7813L3.705 35.0288L2.22375 33.9613H4.04L4.61375 32.2413L5.17125 33.9776H7.00375L5.5225 35.045L6.09375 36.78ZM6.09375 27.9875L5.52 26.2675L7.0025 25.2H5.17L4.6125 23.4475L4.03875 25.1838H2.2225L3.70375 26.2513L3.13 27.9875L4.6125 26.92L6.09375 27.9875ZM5.52 17.4738L6.09375 19.2263L4.6125 18.1425L3.13125 19.21L3.705 17.4738L2.22375 16.4063H4.04L4.61375 14.67L5.17125 16.4063H7.00375L5.52 17.4738ZM9.77375 31.3163L11.255 32.4001L10.6988 30.6475L12.1637 29.5801H10.3475L9.77375 27.8438L9.2325 29.5801H7.385L8.86625 30.6475L8.30875 32.3838L9.77375 31.3163ZM10.6975 21.87L11.255 23.6063L9.77375 22.5225L8.30875 23.6063L8.86625 21.8538L7.38375 20.7875H9.23125L9.7725 19.0675L10.3463 20.8038H12.1625L10.6975 21.87ZM11.255 14.83L10.6975 13.0775L12.1637 12.01H10.3475L9.77375 10.2738L9.2325 12.01H7.385L8.86625 13.0775L8.30875 14.8138L9.77375 13.7463L11.255 14.83ZM16.4163 36.78L14.935 35.7125L13.47 36.78L14.0275 35.0275L12.5625 33.96H14.3787L14.9363 32.24L15.51 33.9763H17.3263L15.8612 35.0438L16.4163 36.78ZM16.4163 27.9875L15.8587 26.2675L17.3263 25.2H15.51L14.9363 23.4475L14.3787 25.1838H12.5625L14.0275 26.2513L13.47 27.9875L14.935 26.92L16.4163 27.9875ZM15.8587 17.4738L16.4163 19.2263L14.935 18.1425L13.47 19.21L14.0275 17.4738L12.5625 16.4063H14.3787L14.9363 14.67L15.51 16.4063H17.3263L15.8587 17.4738ZM16.4163 10.4325L15.8587 8.6963L17.3263 7.6288H15.51L14.9363 5.8763L14.3787 7.61255H12.5625L14.0275 8.68005L13.47 10.4325L14.935 9.3488L16.4163 10.4325ZM21.5775 32.4001L20.1125 31.3163L18.6312 32.3838L19.1887 30.6475L17.7237 29.5801H19.54L20.1137 27.8438L20.6712 29.5801H22.5037L21.0225 30.6475L21.5775 32.4001ZM21.5775 23.6063L21.02 21.87L22.5037 20.8025H20.6712L20.1137 19.0663L19.54 20.7863H17.7237L19.1887 21.8538L18.6312 23.6063L20.1125 22.5225L21.5775 23.6063ZM21.02 13.0775L21.5775 14.83L20.1125 13.7463L18.6312 14.8138L19.1887 13.0775L17.7237 12.01H19.54L20.1137 10.2738L20.6712 12.01H22.5037L21.02 13.0775ZM21.5775 6.0363L21.02 4.30005L22.5025 3.23255H20.67L20.1125 1.4963L19.5387 3.23255H17.7225L19.1875 4.30005L18.6313 6.0363L20.1125 4.9688L21.5775 6.0363ZM26.7537 36.78L25.2725 35.7125L23.7913 36.78L24.365 35.0275L22.8838 33.96H24.7163L25.2738 32.24L25.8313 33.9763H27.6638L26.1825 35.0438L26.7537 36.78ZM26.755 27.9875L26.1812 26.2675L27.665 25.2H25.8325L25.275 23.4475L24.7175 25.1838H22.885L24.3663 26.2513L23.7925 27.9875L25.2738 26.92L26.755 27.9875ZM26.1812 17.4738L26.755 19.2263L25.2738 18.1425L23.7925 19.21L24.3663 17.4738L22.885 16.4063H24.7175L25.275 14.67L25.8325 16.4063H27.665L26.1812 17.4738ZM26.755 10.4325L26.1812 8.6963L27.665 7.6288H25.8325L25.275 5.8763L24.7175 7.61255H22.885L24.3663 8.68005L23.7925 10.4325L25.2738 9.3488L26.755 10.4325Z" fill="#2B497A"/>
</g>
<mask id="mask1_232_1046" style="mask-type:alpha" maskUnits="userSpaceOnUse" x="14" y="13" width="68" height="68">
<path d="M14.3154 69.8145C30.0162 84.0416 54.2882 83.5818 69.435 68.435C84.5817 53.2883 85.0416 29.0162 70.8145 13.3154L14.3154 69.8145Z" fill="#C4C4C4"/>
</mask>
<g mask="url(#mask1_232_1046)">
<path fill-rule="evenodd" clip-rule="evenodd" d="M20.3337 14.3263C27.2812 8.5075 36.2287 5 46 5C55.7712 5 64.7212 8.50875 71.6675 14.3287L71.68 75.6612C64.7312 81.4875 55.7775 85 46 85C36.2287 85 27.2812 81.4925 20.3337 75.6738V14.3263ZM44.195 64.6362L46.2412 64.5812L45.7837 54.765L55.6287 55.94C55.5584 55.7915 55.4891 55.6511 55.4222 55.5157C54.9101 54.479 54.545 53.74 55.0337 51.93L64.0762 44.3938L62.5 43.8125C61.6348 43.1497 62.1681 41.241 62.7022 39.3291C62.9699 38.371 63.2378 37.4121 63.33 36.6087C63.33 36.6087 58.0625 38.42 57.7162 37.4663L56.3612 34.88L51.5637 40.1625C51.0387 40.2875 50.8175 40.08 50.6925 39.6375L52.905 28.6038L49.3925 30.5813C49.1025 30.72 48.8125 30.61 48.6187 30.2638L45.2312 23.4888L41.7462 30.5263C41.4837 30.775 41.2212 30.8025 41 30.6362L37.655 28.7563L39.6737 39.6937C39.5087 40.1362 39.1212 40.2463 38.6787 40.0112L34.0737 34.7988C33.878 35.1171 33.7033 35.4999 33.5284 35.8831C33.1719 36.6643 32.8147 37.4472 32.2762 37.6888C31.7331 37.9172 30.2951 37.5148 28.8697 37.1159C28.2285 36.9365 27.5897 36.7577 27.0362 36.6375C27.1928 37.2026 27.4352 37.8638 27.6885 38.5547C28.4203 40.5509 29.2433 42.7955 28.35 43.6888V43.675L26.3862 44.3388L35.4425 52.2887C35.9936 53.9101 35.5166 54.6162 34.9991 55.3825C34.8674 55.5774 34.7331 55.7762 34.6125 55.995L44.43 54.75L44.195 64.6362Z" fill="white"/>
<path fill-rule="evenodd" clip-rule="evenodd" d="M20.3337 75.6738C11.5737 68.3363 6 57.3213 6 45C6 32.6788 11.5737 21.6638 20.3337 14.3263V75.6738ZM71.6675 14.3288L71.68 75.6613C80.4313 68.3238 86 57.3138 86 45C86 32.68 80.4263 21.6663 71.6675 14.3288ZM55.63 55.9388L45.785 54.7638L46.2412 64.5813L44.195 64.6363L44.43 54.75L34.6125 55.995C34.7332 55.7763 34.8674 55.5775 34.9991 55.3826C35.5166 54.6163 35.9936 53.9101 35.4425 52.2888L26.3862 44.3388L28.35 43.675V43.6888C29.2433 42.7955 28.4204 40.5509 27.6885 38.5548C27.4352 37.8638 27.1928 37.2026 27.0362 36.6375C27.5898 36.7578 28.2285 36.9365 28.8698 37.116C30.2951 37.5148 31.7331 37.9173 32.2762 37.6888C32.8147 37.4473 33.1719 36.6644 33.5284 35.8831C33.7033 35.4999 33.878 35.1172 34.0737 34.7988L38.6787 40.0113C39.1213 40.2463 39.5088 40.1363 39.6738 39.6938L37.655 28.7563L41 30.6363C41.2212 30.8025 41.4837 30.775 41.7463 30.5263L45.2312 23.4888L48.6188 30.2638C48.8125 30.61 49.1025 30.72 49.3925 30.5813L52.905 28.6038L50.6925 39.6375C50.8175 40.08 51.0387 40.2875 51.5638 40.1625L56.3613 34.88L57.7162 37.4663C58.0625 38.42 63.33 36.6088 63.33 36.6088C63.2378 37.4121 62.9699 38.371 62.7022 39.3292C62.1681 41.241 61.6348 43.1497 62.5 43.8125L64.0762 44.3938L55.0337 51.93C54.5461 53.7403 54.9115 54.4793 55.4237 55.5153L55.4238 55.5156C55.4906 55.6506 55.5598 55.7907 55.63 55.9388Z" fill="#C61740"/>
</g>
</svg>
